<svg xmlns="http://www.w3.org/2000/svg" viewBox="0 0 64 64">
  <defs>
    <linearGradient id="sky" x1="0" y1="0" x2="0" y2="1">
      <stop offset="0" stop-color="#10141e"/>
      <stop offset="1" stop-color="#1e2432"/>
    </linearGradient>
  </defs>
  <rect width="64" height="64" fill="url(#sky)"/>
  <circle cx="46" cy="14" r="6" fill="#ffd65c"/>
  <rect x="0" y="56" width="64" height="8" fill="#222822"/>
  <g fill="#787c78">
    <rect x="8" y="24" width="10" height="32"/>
    <rect x="46" y="24" width="10" height="32"/>
    <rect x="7" y="20" width="3" height="4"/>
    <rect x="11.5" y="20" width="3" height="4"/>
    <rect x="16" y="20" width="3" height="4"/>
    <rect x="45" y="20" width="3" height="4"/>
    <rect x="49.5" y="20" width="3" height="4"/>
    <rect x="54" y="20" width="3" height="4"/>
  </g>
  <g fill="#9a9e98">
    <rect x="12" y="38" width="40" height="18"/>
    <rect x="14" y="34" width="4" height="4"/>
    <rect x="22" y="34" width="4" height="4"/>
    <rect x="30" y="34" width="4" height="4"/>
    <rect x="38" y="34" width="4" height="4"/>
    <rect x="46" y="34" width="4" height="4"/>
    <rect x="26" y="26" width="12" height="30"/>
    <rect x="26" y="22" width="3" height="4"/>
    <rect x="30.5" y="22" width="3" height="4"/>
    <rect x="35" y="22" width="3" height="4"/>
  </g>
  <rect x="29" y="46" width="6" height="10" fill="#282018"/>
  <rect x="31" y="32" width="2" height="5" fill="#ffd65c"/>
</svg>
